# xmcd
#
# Track frame offsets:
#	150
#	13672
#	27193
#	36333
#	47064
#	60028
#	71498
#	83997
#	98044
#	110604
#	124495
#	135583
#	146053
#	156476
#	175416
#	190552
#	207787
#	217466
#	230601
#	243363
#	255171
#	270271
#	277723
#	289269
#
# Disc length: 3941 seconds
#
# Revision: 1
# Processed by: cddbd v1.5.1PL2 Copyright (c) Steve Scherf et al.
# Submitted via: dBpowerAMP V4.0
#
DISCID=5b0f6318
DTITLE=Cornelis Vreeswijk - Cornelis bästa
DYEAR=1900
DGENRE=
TTITLE0=Cool Water
TTITLE1=Somliga går i trasiga skor
TTITLE2=Jultomten är faktiskt död
TTITLE3=Dekadens
TTITLE4=Homage för sveriges radio
TTITLE5=Från en vän i viken
TTITLE6=Blues för en arbetarkvinna som har hängt sig
TTITLE7=Sambaliten
TTITLE8=När det brinner i lögnfabriken
TTITLE9=Bruna bönor komplet
TTITLE10=The bananrepublikanens sång
TTITLE11=Feliciia pratar
TTITLE12=En resa
TTITLE13=Blues för ett torn
TTITLE14=Dubbelquatrin om tennis
TTITLE15=Vykort till LO
TTITLE16=Mördar-Anders
TTITLE17=Balladen om herr Fredrik åkare och den söta Cecilia Lind
TTITLE18=De fattiga riddarnas ballad
TTITLE19=Cylinderhatt
TTITLE20=Sist jag åkte jumbojet
TTITLE21=Sportiga Marie
TTITLE22=Ballad om olika segelytor
TTITLE23=Lillsysterns undulat är död
EXTD=
EXTT0=
EXTT1=
EXTT2=
EXTT3=
EXTT4=
EXTT5=
EXTT6=
EXTT7=
EXTT8=
EXTT9=
EXTT10=
EXTT11=
EXTT12=
EXTT13=
EXTT14=
EXTT15=
EXTT16=
EXTT17=
EXTT18=
EXTT19=
EXTT20=
EXTT21=
EXTT22=
EXTT23=
PLAYORDER=
